<?xml version="1.0" encoding="UTF-8"?>
<svg version="1.1" xmlns="http://www.w3.org/2000/svg" width="256" height="256">
<path d="M0 0 C4.0743356 0.84881992 5.54405875 2.30225596 8 5.625 C8.92505548 11.4751194 6.37678025 15.06252387 3.375 19.8125 C2.44399504 21.3364355 1.51430319 22.861174 0.5859375 24.38671875 C0.13573242 25.11938965 -0.31447266 25.85206055 -0.77832031 26.60693359 C-2.26966403 29.07045222 -3.64859463 31.5823269 -5 34.125 C-7.63363442 39.01495732 -10.39196884 43.82634003 -13.1875 48.625 C-13.61611328 49.36814453 -14.04472656 50.11128906 -14.48632812 50.87695312 C-14.89689453 51.57755859 -15.30746094 52.27816406 -15.73046875 53 C-16.27803833 53.93972656 -16.27803833 53.93972656 -16.83666992 54.8984375 C-18.09566541 56.76698233 -19.24860939 58.2006458 -21 59.625 C-24.09562931 60.01809578 -26.04336605 60.24838668 -29 59.625 C-31.5625 57.5625 -31.5625 57.5625 -33 54.625 C-32.72398855 48.69801729 -30.73617633 44.6729399 -27.8125 39.6875 C-27.37977783 38.93186768 -26.94705566 38.17623535 -26.5012207 37.39770508 C-25.54141284 35.7267052 -24.5762023 34.05880035 -23.60644531 32.39355469 C-21.85158884 29.36922758 -20.1246282 26.32983497 -18.3984375 23.2890625 C-17.16246393 21.12963246 -15.92549385 18.97077246 -14.6875 16.8125 C-13.80831909 15.26477905 -13.80831909 15.26477905 -12.91137695 13.68579102 C-5.66647893 1.18051644 -5.66647893 1.18051644 0 0 Z " fill="#BDED4E" transform="translate(126,76.375)"/>
<path d="M0 0 C2.38484028 1.75725074 3.58711487 3.20175542 4.9375 5.8125 C5.0960181 11.36063348 0.87286008 17.24632015 -1.8125 21.9375 C-2.18850342 22.5984668 -2.56450684 23.25943359 -2.9519043 23.94042969 C-3.80546428 25.43605701 -4.66149817 26.93027422 -5.51953125 28.42333984 C-6.59010543 30.286605 -7.65740062 32.15175546 -8.72265625 34.01806641 C-10.57853836 37.26635264 -12.44428573 40.50879303 -14.3125 43.75 C-14.91102783 44.79792725 -15.50955566 45.84585449 -16.1262207 46.92553711 C-16.69945068 47.91432861 -17.27268066 48.90312012 -17.86328125 49.921875 C-18.37157471 50.80456055 -18.87986816 51.68724609 -19.40356445 52.59667969 C-21.07060406 55.1062894 -22.70092871 57.05196373 -25 59 C-28.98452984 59.56921855 -31.05493748 59.67149179 -34.375 57.3125 C-36.2169716 54.69123272 -36.69942562 53.17683994 -37 50 C-36.13671875 47.484375 -36.13671875 47.484375 -34.6875 44.75 C-34.12804687 43.69425781 -33.56859375 42.63851562 -32.9921875 41.55078125 C-30.00904339 36.17960757 -26.8849013 30.89140626 -23.734375 25.6171875 C-21.78826218 22.35242036 -19.88955614 19.06453535 -18.015625 15.7578125 C-17.52280029 14.89164307 -17.02997559 14.02547363 -16.5222168 13.13305664 C-15.56520874 11.4477685 -14.61335514 9.75954059 -13.66723633 8.06811523 C-13.2317749 7.30442627 -12.79631348 6.5407373 -12.34765625 5.75390625 C-11.77543335 4.73792358 -11.77543335 4.73792358 -11.19165039 3.70141602 C-8.19636225 -0.57520006 -4.81969351 -0.50733616 0 0 Z " fill="#BBE94E" transform="translate(212,77)"/>
<path d="M0 0 C2.6281171 1.66447416 2.93467021 2.75200409 3.73144531 5.77661133 C4.05180007 9.62174214 3.34672474 11.08481081 1.421875 14.38671875 C0.8429248 15.39895508 0.26397461 16.41119141 -0.33251953 17.45410156 C-1.28167236 19.05463379 -1.28167236 19.05463379 -2.25 20.6875 C-3.20495361 22.34023926 -3.20495361 22.34023926 -4.17919922 24.02636719 C-5.48138319 26.27662961 -6.79047523 28.52290863 -8.10644531 30.76513672 C-9.84099012 33.7283547 -11.54818012 36.70488292 -13.2421875 39.69140625 C-14.20263643 41.3778825 -15.16354416 43.06409758 -16.125 44.75 C-16.56102539 45.51658936 -16.99705078 46.28317871 -17.44628906 47.07299805 C-23.40668545 57.38718671 -23.40668545 57.38718671 -27.4375 58.9375 C-30.65849569 59.01606087 -32.25622151 58.73291273 -35 57 C-36.45217115 54.48662685 -37.40530624 52.77055677 -38 50 C-37.23178333 47.26928023 -36.5024408 45.52532757 -35.125 43.125 C-34.77147461 42.46443604 -34.41794922 41.80387207 -34.05371094 41.12329102 C-28.58745702 31.10744922 -22.54204441 21.39357462 -16.6003418 11.65576172 C-15.24996338 9.41481337 -13.94089051 7.16002089 -12.66015625 4.87890625 C-9.25342561 -1.02876548 -6.61806753 -1.68459901 0 0 Z " fill="#BCEB4E" transform="translate(77,111)"/>
<path d="M0 0 C2.5531684 1.61700665 2.93815099 2.82269951 3.9375 5.6875 C4.08618447 13.56777705 -2.84687294 22.0042483 -6.75 28.625 C-11.72310517 37.06890692 -11.72310517 37.06890692 -16.58984375 45.57421875 C-17.13463379 46.54270752 -17.13463379 46.54270752 -17.69042969 47.53076172 C-18.61395443 49.18107601 -19.53183323 50.83454638 -20.44921875 52.48828125 C-22.42147524 55.68264126 -23.79609725 57.58813853 -27.375 58.8125 C-30.5252038 59.03751456 -32.23334006 58.49549186 -35 57 C-37.51697821 53.22453269 -37.44708932 51.48486473 -37 47 C-35.76983801 44.41251985 -34.5395093 42.19924799 -33 39.8125 C-32.08805489 38.33914827 -31.17946027 36.86371974 -30.2734375 35.38671875 C-29.76135742 34.55575684 -29.24927734 33.72479492 -28.72167969 32.86865234 C-26.72224206 29.53720138 -24.81191211 26.15938473 -22.9140625 22.76953125 C-22.56100037 22.14107803 -22.20793823 21.51262482 -21.84417725 20.86512756 C-20.41495017 18.32063337 -18.98602686 15.77610041 -17.57080078 13.2237854 C-16.56814476 11.4180532 -15.55469219 9.61877128 -14.5390625 7.8203125 C-13.95334473 6.77117676 -13.36762695 5.72204102 -12.76416016 4.64111328 C-9.07813578 -0.87721106 -6.45114834 -1.64211049 0 0 Z " fill="#BDEB4F" transform="translate(159,111)"/>
<path d="M0 0 C0.66 0.99 1.32 1.98 2 3 C1.67 3.33 1.34 3.66 1 4 C0.86431681 7.66344611 0.83538574 10.50615721 2 14 C1.34 14 0.68 14 0 14 C-3.25369979 8.09513742 -3.25369979 8.09513742 -2.53125 4.9765625 C-1.6875 3.0625 -1.6875 3.0625 0 0 Z " fill="#A5CA4E" transform="translate(42,154)"/>
<path d="M0 0 C1.18771723 3.42943519 0.80226223 5.37784675 -0.4375 8.75 C-0.86869141 9.94882813 -0.86869141 9.94882813 -1.30859375 11.171875 C-1.53675781 11.77515625 -1.76492187 12.3784375 -2 13 C-2.66 13 -3.32 13 -4 13 C-3.50269348 8.02693484 -2.44697666 4.36200187 0 0 Z " fill="#9EC346" transform="translate(97,118)"/>
<path d="M0 0 C1.3271261 3.9813783 1.06915913 7.85045227 1 12 C0.01 11.67 -0.98 11.34 -2 11 C-3.14947895 7.44706507 -3.0868937 6.20023331 -1.5625 2.6875 C-1.046875 1.800625 -0.53125 0.91375 0 0 Z " fill="#9FC44A" transform="translate(178,121)"/>
<path d="M0 0 C0.99 0.33 1.98 0.66 3 1 C3.3367697 5.93928888 3.16130459 6.78492722 0 11 C0 7.37 0 3.74 0 0 Z " fill="#A1C74B" transform="translate(131,81)"/>
<path d="M0 0 C0.66 0 1.32 0 2 0 C1.58525633 5.28798182 0.64775386 8.11690718 -3 12 C-2.40075776 7.80530429 -1.42500059 3.99000166 0 0 Z " fill="#98BC46" transform="translate(161,116)"/>
<path d="M0 0 C0.75 1.625 0.75 1.625 1 4 C-0.875 7.25 -0.875 7.25 -3 10 C-3.33 10 -3.66 10 -4 10 C-4 8.35 -4 6.7 -4 5 C-3.01 4.67 -2.02 4.34 -1 4 C-0.26676204 1.98491642 -0.26676204 1.98491642 0 0 Z " fill="#A4CA48" transform="translate(69,136)"/>
<path d="M0 0 C0.66 0.33 1.32 0.66 2 1 C0.7508258 4.45925163 -0.67527795 7.14693203 -3 10 C-3.33 9.01 -3.66 8.02 -4 7 C-3.34 7 -2.68 7 -2 7 C-1.855625 6.401875 -1.71125 5.80375 -1.5625 5.1875 C-1.1127561 3.43849596 -0.57107659 1.71322977 0 0 Z " fill="#94B943" transform="translate(111,122)"/>
<path d="M0 0 C0.66 1.32 1.32 2.64 2 4 C1.34 4 0.68 4 0 4 C-0.66 5.65 -1.32 7.3 -2 9 C-2.66 9 -3.32 9 -4 9 C-2.80100302 5.9168649 -1.52299523 2.93720508 0 0 Z " fill="#A1C84A" transform="translate(61,121)"/>
<path d="M0 0 C0 0.99 0 1.98 0 3 C-2.64 3 -5.28 3 -8 3 C-5.53387212 -0.1151089 -3.89156016 -0.31553191 0 0 Z " fill="#92B141" transform="translate(157,110)"/>
<path d="M0 0 C0.33 1.32 0.66 2.64 1 4 C0.34 4 -0.32 4 -1 4 C-1.33 5.65 -1.66 7.3 -2 9 C-2.99 9.33 -3.98 9.66 -5 10 C-3.66511872 6.40608886 -2.03977277 3.24509304 0 0 Z " fill="#9AC241" transform="translate(106,103)"/>
<path d="M0 0 C0.6875 1.6875 0.6875 1.6875 1 4 C-0.3125 6.75 -0.3125 6.75 -2 9 C-2.66 9 -3.32 9 -4 9 C-2.94124926 5.59687262 -1.99097846 2.98646769 0 0 Z " fill="#9DBF43" transform="translate(115,87)"/>
</svg>
